# MagicaVoxel @ Ephtracy

# group
o 

# material
mtllib protatriste.mtl
usemtl palette

# normals
vn -1 0 0
vn 1 0 0
vn 0 0 1
vn 0 0 -1
vn 0 -1 0
vn 0 1 0

# texcoords
vt 0.306641 0.5
vt 0.826172 0.5
vt 0.970703 0.5
vt 0.974609 0.5
vt 0.978516 0.5
vt 0.982422 0.5
vt 0.986328 0.5
vt 0.990234 0.5
vt 0.994141 0.5

# verts
v 0.6 1.5 -0.5
v 0.6 1.5 -1.8
v 0.6 2.6 -0.5
v 0.6 2.6 -1.8
v 1 1 -0.5
v 1 1 -0.9
v 1 1.4 -0.5
v 1 1.4 -0.9
v 1.4 1 -1.3
v 1.4 1 -1.7
v 1.4 1.4 -1.3
v 1.4 1.4 -1.7
v 1.6 1.6 -1.8
v 1.6 1.6 -2.1
v 1.6 2 -1.8
v 1.6 2 -2.1
v 1.7 1.6 -0.3
v 1.7 1.6 -0.5
v 1.7 2 -0.3
v 1.7 2 -0.5
v 1.4 1 -0.5
v 1.4 1 -0.9
v 1.4 1.4 -0.5
v 1.4 1.4 -0.9
v 1.7 1.5 -0.5
v 1.7 1.5 -1.8
v 1.7 1.6 -0.5
v 1.7 1.6 -0.7
v 1.7 1.6 -0.9
v 1.7 1.6 -1.4
v 1.7 1.6 -1.7
v 1.7 1.6 -1.8
v 1.7 1.8 -0.9
v 1.7 1.8 -1
v 1.7 1.8 -1.3
v 1.7 1.8 -1.4
v 1.7 1.9 -1
v 1.7 1.9 -1.3
v 1.7 2 -0.5
v 1.7 2 -0.7
v 1.7 2 -0.8
v 1.7 2 -0.9
v 1.7 2 -1
v 1.7 2 -1.3
v 1.7 2 -1.4
v 1.7 2 -1.5
v 1.7 2 -1.6
v 1.7 2 -1.7
v 1.7 2 -1.8
v 1.7 2.1 -0.7
v 1.7 2.1 -0.8
v 1.7 2.1 -0.9
v 1.7 2.1 -1
v 1.7 2.1 -1.3
v 1.7 2.1 -1.4
v 1.7 2.1 -1.5
v 1.7 2.1 -1.6
v 1.7 2.3 -0.8
v 1.7 2.3 -1
v 1.7 2.3 -1.3
v 1.7 2.3 -1.5
v 1.7 2.4 -0.7
v 1.7 2.4 -0.8
v 1.7 2.4 -1
v 1.7 2.4 -1.1
v 1.7 2.4 -1.2
v 1.7 2.4 -1.3
v 1.7 2.4 -1.5
v 1.7 2.4 -1.6
v 1.7 2.5 -0.7
v 1.7 2.5 -0.8
v 1.7 2.5 -1
v 1.7 2.5 -1.1
v 1.7 2.5 -1.2
v 1.7 2.5 -1.3
v 1.7 2.5 -1.5
v 1.7 2.5 -1.6
v 1.7 2.6 -0.5
v 1.7 2.6 -1.8
v 1.8 1 -1.3
v 1.8 1 -1.7
v 1.8 1.4 -1.3
v 1.8 1.4 -1.7
v 1.8 2.3 -0.8
v 1.8 2.3 -1
v 1.8 2.3 -1.3
v 1.8 2.3 -1.5
v 1.8 2.4 -0.7
v 1.8 2.4 -0.8
v 1.8 2.4 -1
v 1.8 2.4 -1.1
v 1.8 2.4 -1.2
v 1.8 2.4 -1.3
v 1.8 2.4 -1.5
v 1.8 2.4 -1.6
v 1.8 2.5 -0.7
v 1.8 2.5 -0.8
v 1.8 2.5 -1
v 1.8 2.5 -1.1
v 1.8 2.5 -1.2
v 1.8 2.5 -1.3
v 1.8 2.5 -1.5
v 1.8 2.5 -1.6
v 2 1.6 -0.3
v 2 1.6 -0.7
v 2 1.6 -1.7
v 2 1.6 -2.1
v 2 2 -0.3
v 2 2 -0.7
v 2 2 -1.7
v 2 2 -2.1
v 1.7 1.6 -0.3
v 1.7 2 -0.3
v 2 1.6 -0.3
v 2 2 -0.3
v 0.6 1.5 -0.5
v 0.6 2.6 -0.5
v 1 1 -0.5
v 1 1.4 -0.5
v 1.4 1 -0.5
v 1.4 1.4 -0.5
v 1.7 1.5 -0.5
v 1.7 1.6 -0.5
v 1.7 2 -0.5
v 1.7 2.6 -0.5
v 1.7 2.4 -0.7
v 1.7 2.5 -0.7
v 1.8 2.4 -0.7
v 1.8 2.5 -0.7
v 1.7 2.3 -0.8
v 1.7 2.4 -0.8
v 1.8 2.3 -0.8
v 1.8 2.4 -0.8
v 1.7 2.4 -1
v 1.7 2.5 -1
v 1.8 2.4 -1
v 1.8 2.5 -1
v 1.7 2.4 -1.2
v 1.7 2.5 -1.2
v 1.8 2.4 -1.2
v 1.8 2.5 -1.2
v 1.4 1 -1.3
v 1.4 1.4 -1.3
v 1.7 2.3 -1.3
v 1.7 2.4 -1.3
v 1.8 1 -1.3
v 1.8 1.4 -1.3
v 1.8 2.3 -1.3
v 1.8 2.4 -1.3
v 1.7 2.4 -1.5
v 1.7 2.5 -1.5
v 1.8 2.4 -1.5
v 1.8 2.5 -1.5
v 1.7 1.6 -1.7
v 1.7 2 -1.7
v 2 1.6 -1.7
v 2 2 -1.7
v 1.7 1.6 -0.7
v 1.7 2 -0.7
v 2 1.6 -0.7
v 2 2 -0.7
v 1.7 2.4 -0.8
v 1.7 2.5 -0.8
v 1.8 2.4 -0.8
v 1.8 2.5 -0.8
v 1 1 -0.9
v 1 1.4 -0.9
v 1.4 1 -0.9
v 1.4 1.4 -0.9
v 1.7 2.3 -1
v 1.7 2.4 -1
v 1.8 2.3 -1
v 1.8 2.4 -1
v 1.7 2.4 -1.1
v 1.7 2.5 -1.1
v 1.8 2.4 -1.1
v 1.8 2.5 -1.1
v 1.7 2.4 -1.3
v 1.7 2.5 -1.3
v 1.8 2.4 -1.3
v 1.8 2.5 -1.3
v 1.7 2.3 -1.5
v 1.7 2.4 -1.5
v 1.8 2.3 -1.5
v 1.8 2.4 -1.5
v 1.7 2.4 -1.6
v 1.7 2.5 -1.6
v 1.8 2.4 -1.6
v 1.8 2.5 -1.6
v 1.4 1 -1.7
v 1.4 1.4 -1.7
v 1.8 1 -1.7
v 1.8 1.4 -1.7
v 0.6 1.5 -1.8
v 0.6 2.6 -1.8
v 1.6 1.6 -1.8
v 1.6 2 -1.8
v 1.7 1.5 -1.8
v 1.7 1.6 -1.8
v 1.7 2 -1.8
v 1.7 2.6 -1.8
v 1.6 1.6 -2.1
v 1.6 2 -2.1
v 2 1.6 -2.1
v 2 2 -2.1
v 1 1 -0.5
v 1.4 1 -0.5
v 1 1 -0.9
v 1.4 1 -0.9
v 1.4 1 -1.3
v 1.8 1 -1.3
v 1.4 1 -1.7
v 1.8 1 -1.7
v 0.6 1.5 -0.5
v 1.7 1.5 -0.5
v 0.6 1.5 -1.8
v 1.7 1.5 -1.8
v 1.7 1.6 -0.3
v 2 1.6 -0.3
v 1.7 1.6 -0.5
v 1.7 1.6 -0.7
v 2 1.6 -0.7
v 1.7 1.6 -1.7
v 2 1.6 -1.7
v 1.6 1.6 -1.8
v 1.7 1.6 -1.8
v 1.6 1.6 -2.1
v 2 1.6 -2.1
v 1.7 2.3 -0.8
v 1.8 2.3 -0.8
v 1.7 2.3 -1
v 1.8 2.3 -1
v 1.7 2.3 -1.3
v 1.8 2.3 -1.3
v 1.7 2.3 -1.5
v 1.8 2.3 -1.5
v 1.7 2.4 -0.7
v 1.8 2.4 -0.7
v 1.7 2.4 -0.8
v 1.8 2.4 -0.8
v 1.7 2.4 -1
v 1.8 2.4 -1
v 1.7 2.4 -1.1
v 1.8 2.4 -1.1
v 1.7 2.4 -1.2
v 1.8 2.4 -1.2
v 1.7 2.4 -1.3
v 1.8 2.4 -1.3
v 1.7 2.4 -1.5
v 1.8 2.4 -1.5
v 1.7 2.4 -1.6
v 1.8 2.4 -1.6
v 1 1.4 -0.5
v 1.4 1.4 -0.5
v 1 1.4 -0.9
v 1.4 1.4 -0.9
v 1.4 1.4 -1.3
v 1.8 1.4 -1.3
v 1.4 1.4 -1.7
v 1.8 1.4 -1.7
v 1.7 2 -0.3
v 2 2 -0.3
v 1.7 2 -0.5
v 1.7 2 -0.7
v 2 2 -0.7
v 1.7 2 -1.7
v 2 2 -1.7
v 1.6 2 -1.8
v 1.7 2 -1.8
v 1.6 2 -2.1
v 2 2 -2.1
v 1.7 2.4 -0.8
v 1.8 2.4 -0.8
v 1.7 2.4 -1
v 1.8 2.4 -1
v 1.7 2.4 -1.3
v 1.8 2.4 -1.3
v 1.7 2.4 -1.5
v 1.8 2.4 -1.5
v 1.7 2.5 -0.7
v 1.8 2.5 -0.7
v 1.7 2.5 -0.8
v 1.8 2.5 -0.8
v 1.7 2.5 -1
v 1.8 2.5 -1
v 1.7 2.5 -1.1
v 1.8 2.5 -1.1
v 1.7 2.5 -1.2
v 1.8 2.5 -1.2
v 1.7 2.5 -1.3
v 1.8 2.5 -1.3
v 1.7 2.5 -1.5
v 1.8 2.5 -1.5
v 1.7 2.5 -1.6
v 1.8 2.5 -1.6
v 0.6 2.6 -0.5
v 1.7 2.6 -0.5
v 0.6 2.6 -1.8
v 1.7 2.6 -1.8

# faces
f 3/3/1 2/3/1 1/3/1
f 4/3/1 2/3/1 3/3/1
f 7/9/1 6/9/1 5/9/1
f 8/9/1 6/9/1 7/9/1
f 11/9/1 10/9/1 9/9/1
f 12/9/1 10/9/1 11/9/1
f 15/6/1 14/6/1 13/6/1
f 16/6/1 14/6/1 15/6/1
f 19/6/1 18/6/1 17/6/1
f 20/6/1 18/6/1 19/6/1
f 21/9/2 22/9/2 23/9/2
f 23/9/2 22/9/2 24/9/2
f 25/3/2 26/3/2 27/3/2
f 27/3/2 26/3/2 28/3/2
f 28/3/2 26/3/2 29/3/2
f 29/3/2 26/3/2 30/3/2
f 30/3/2 26/3/2 31/3/2
f 31/3/2 26/3/2 32/3/2
f 28/3/2 29/3/2 33/3/2
f 29/7/2 30/7/2 33/7/2
f 33/7/2 30/7/2 34/7/2
f 34/7/2 30/7/2 35/7/2
f 30/3/2 31/3/2 36/3/2
f 35/7/2 30/7/2 36/7/2
f 34/7/2 35/7/2 37/7/2
f 33/3/2 34/3/2 37/3/2
f 35/3/2 36/3/2 38/3/2
f 37/7/2 35/7/2 38/7/2
f 28/3/2 33/3/2 40/3/2
f 33/3/2 37/3/2 40/3/2
f 37/3/2 38/3/2 40/3/2
f 40/3/2 38/3/2 41/3/2
f 41/3/2 38/3/2 42/3/2
f 42/3/2 38/3/2 43/3/2
f 38/3/2 36/3/2 44/3/2
f 43/3/2 38/3/2 44/3/2
f 36/3/2 31/3/2 45/3/2
f 44/3/2 36/3/2 45/3/2
f 45/3/2 31/3/2 46/3/2
f 46/3/2 31/3/2 47/3/2
f 47/3/2 31/3/2 48/3/2
f 39/3/2 40/3/2 50/3/2
f 40/8/2 41/8/2 50/8/2
f 41/4/2 42/4/2 51/4/2
f 50/8/2 41/8/2 51/8/2
f 42/8/2 43/8/2 52/8/2
f 51/4/2 42/4/2 52/4/2
f 43/3/2 44/3/2 53/3/2
f 52/8/2 43/8/2 53/8/2
f 44/8/2 45/8/2 54/8/2
f 53/3/2 44/3/2 54/3/2
f 45/4/2 46/4/2 55/4/2
f 54/8/2 45/8/2 55/8/2
f 46/8/2 47/8/2 56/8/2
f 55/4/2 46/4/2 56/4/2
f 48/3/2 49/3/2 57/3/2
f 56/8/2 47/8/2 57/8/2
f 47/3/2 48/3/2 57/3/2
f 51/4/2 52/4/2 58/4/2
f 50/3/2 51/3/2 58/3/2
f 52/4/2 53/4/2 58/4/2
f 53/3/2 54/3/2 59/3/2
f 58/4/2 53/4/2 59/4/2
f 55/4/2 56/4/2 60/4/2
f 59/3/2 54/3/2 60/3/2
f 54/4/2 55/4/2 60/4/2
f 56/3/2 57/3/2 61/3/2
f 60/4/2 56/4/2 61/4/2
f 50/3/2 58/3/2 62/3/2
f 39/3/2 50/3/2 62/3/2
f 62/3/2 58/3/2 63/3/2
f 59/3/2 60/3/2 64/3/2
f 64/3/2 60/3/2 65/3/2
f 65/3/2 60/3/2 66/3/2
f 66/3/2 60/3/2 67/3/2
f 61/3/2 57/3/2 68/3/2
f 57/3/2 49/3/2 69/3/2
f 68/3/2 57/3/2 69/3/2
f 39/3/2 62/3/2 70/3/2
f 63/3/2 64/3/2 71/3/2
f 71/3/2 64/3/2 72/3/2
f 65/3/2 66/3/2 73/3/2
f 73/3/2 66/3/2 74/3/2
f 67/3/2 68/3/2 75/3/2
f 75/3/2 68/3/2 76/3/2
f 69/3/2 49/3/2 77/3/2
f 73/3/2 74/3/2 78/3/2
f 76/3/2 77/3/2 78/3/2
f 75/3/2 76/3/2 78/3/2
f 71/3/2 72/3/2 78/3/2
f 74/3/2 75/3/2 78/3/2
f 39/3/2 70/3/2 78/3/2
f 72/3/2 73/3/2 78/3/2
f 70/3/2 71/3/2 78/3/2
f 77/3/2 49/3/2 79/3/2
f 78/3/2 77/3/2 79/3/2
f 80/9/2 81/9/2 82/9/2
f 82/9/2 81/9/2 83/9/2
f 84/5/2 85/5/2 89/5/2
f 89/5/2 85/5/2 90/5/2
f 86/5/2 87/5/2 93/5/2
f 93/5/2 87/5/2 94/5/2
f 88/5/2 89/5/2 96/5/2
f 96/5/2 89/5/2 97/5/2
f 90/5/2 91/5/2 98/5/2
f 98/5/2 91/5/2 99/5/2
f 92/5/2 93/5/2 100/5/2
f 100/5/2 93/5/2 101/5/2
f 94/5/2 95/5/2 102/5/2
f 102/5/2 95/5/2 103/5/2
f 104/6/2 105/6/2 108/6/2
f 108/6/2 105/6/2 109/6/2
f 106/6/2 107/6/2 110/6/2
f 110/6/2 107/6/2 111/6/2
f 114/6/3 113/6/3 112/6/3
f 115/6/3 113/6/3 114/6/3
f 120/9/3 119/9/3 118/9/3
f 121/9/3 119/9/3 120/9/3
f 122/3/3 117/3/3 116/3/3
f 123/3/3 117/3/3 122/3/3
f 124/3/3 117/3/3 123/3/3
f 125/3/3 117/3/3 124/3/3
f 128/5/3 127/5/3 126/5/3
f 129/5/3 127/5/3 128/5/3
f 132/5/3 131/5/3 130/5/3
f 133/5/3 131/5/3 132/5/3
f 136/5/3 135/5/3 134/5/3
f 137/5/3 135/5/3 136/5/3
f 140/5/3 139/5/3 138/5/3
f 141/5/3 139/5/3 140/5/3
f 146/9/3 143/9/3 142/9/3
f 147/9/3 143/9/3 146/9/3
f 148/5/3 145/5/3 144/5/3
f 149/5/3 145/5/3 148/5/3
f 152/5/3 151/5/3 150/5/3
f 153/5/3 151/5/3 152/5/3
f 156/6/3 155/6/3 154/6/3
f 157/6/3 155/6/3 156/6/3
f 158/6/4 159/6/4 160/6/4
f 160/6/4 159/6/4 161/6/4
f 162/5/4 163/5/4 164/5/4
f 164/5/4 163/5/4 165/5/4
f 166/9/4 167/9/4 168/9/4
f 168/9/4 167/9/4 169/9/4
f 170/5/4 171/5/4 172/5/4
f 172/5/4 171/5/4 173/5/4
f 174/5/4 175/5/4 176/5/4
f 176/5/4 175/5/4 177/5/4
f 178/5/4 179/5/4 180/5/4
f 180/5/4 179/5/4 181/5/4
f 182/5/4 183/5/4 184/5/4
f 184/5/4 183/5/4 185/5/4
f 186/5/4 187/5/4 188/5/4
f 188/5/4 187/5/4 189/5/4
f 190/9/4 191/9/4 192/9/4
f 192/9/4 191/9/4 193/9/4
f 194/3/4 195/3/4 196/3/4
f 196/3/4 195/3/4 197/3/4
f 194/3/4 196/3/4 198/3/4
f 198/3/4 196/3/4 199/3/4
f 197/3/4 195/3/4 200/3/4
f 200/3/4 195/3/4 201/3/4
f 202/6/4 203/6/4 204/6/4
f 204/6/4 203/6/4 205/6/4
f 208/9/5 207/9/5 206/9/5
f 209/9/5 207/9/5 208/9/5
f 212/9/5 211/9/5 210/9/5
f 213/9/5 211/9/5 212/9/5
f 216/3/5 215/3/5 214/3/5
f 217/3/5 215/3/5 216/3/5
f 220/6/5 219/6/5 218/6/5
f 221/6/5 219/6/5 220/6/5
f 222/6/5 219/6/5 221/6/5
f 226/6/5 224/6/5 223/6/5
f 227/6/5 226/6/5 225/6/5
f 228/6/5 224/6/5 226/6/5
f 228/6/5 226/6/5 227/6/5
f 231/5/5 230/5/5 229/5/5
f 232/5/5 230/5/5 231/5/5
f 235/5/5 234/5/5 233/5/5
f 236/5/5 234/5/5 235/5/5
f 239/5/5 238/5/5 237/5/5
f 240/5/5 238/5/5 239/5/5
f 243/5/5 242/5/5 241/5/5
f 244/5/5 242/5/5 243/5/5
f 247/5/5 246/5/5 245/5/5
f 248/5/5 246/5/5 247/5/5
f 251/5/5 250/5/5 249/5/5
f 252/5/5 250/5/5 251/5/5
f 253/9/6 254/9/6 255/9/6
f 255/9/6 254/9/6 256/9/6
f 257/9/6 258/9/6 259/9/6
f 259/9/6 258/9/6 260/9/6
f 261/6/6 262/6/6 263/6/6
f 263/6/6 262/6/6 264/6/6
f 264/6/6 262/6/6 265/6/6
f 266/6/6 267/6/6 269/6/6
f 268/6/6 269/6/6 270/6/6
f 269/6/6 267/6/6 271/6/6
f 270/6/6 269/6/6 271/6/6
f 272/5/6 273/5/6 274/5/6
f 274/5/6 273/5/6 275/5/6
f 276/5/6 277/5/6 278/5/6
f 278/5/6 277/5/6 279/5/6
f 280/5/6 281/5/6 282/5/6
f 282/5/6 281/5/6 283/5/6
f 284/5/6 285/5/6 286/5/6
f 286/5/6 285/5/6 287/5/6
f 288/5/6 289/5/6 290/5/6
f 290/5/6 289/5/6 291/5/6
f 292/5/6 293/5/6 294/5/6
f 294/5/6 293/5/6 295/5/6
f 296/3/6 297/3/6 298/3/6
f 298/3/6 297/3/6 299/3/6
